<svg width="70" height="56" viewBox="0 0 70 56" fill="none" xmlns="http://www.w3.org/2000/svg">
<path d="M49.7889 43.1757L49.7921 43.1718C50.4886 42.3108 51.1307 41.4063 51.7145 40.4637L49.7889 43.1757ZM49.7889 43.1757C46.3505 47.4408 41.6875 50.5255 36.4428 52.0098C31.1984 53.494 25.6265 53.306 20.492 51.4712C15.3573 49.6363 10.9092 46.2435 7.76164 41.7553C5.18979 38.0881 3.58993 33.8371 3.0906 29.4046H5.87083C6.34931 33.1885 7.7281 36.8178 9.91015 39.9756C12.6638 43.9606 16.5655 47.0044 21.093 48.6941C25.6207 50.3838 30.5546 50.6371 35.2302 49.4194C39.8401 48.2188 43.978 45.6459 47.1053 42.043L44.8398 40.0765M49.7889 43.1757L44.8398 40.0765M44.8398 40.0765L47.1053 42.043C47.3024 41.816 47.4652 41.5866 47.6001 41.3684C48.182 40.4274 48.8228 39.5248 49.5186 38.6662L49.5239 38.6597M44.8398 40.0765L49.5239 38.6597M49.5239 38.6597C52.268 35.2541 55.8034 32.586 59.8145 30.8906M49.5239 38.6597L59.8145 30.8906M59.8145 30.8906C61.4266 30.2117 63.1029 29.6997 64.8174 29.3624L64.8254 29.3608L64.8334 29.3592C65.551 29.2139 66.2738 29.0988 67 29.0138V31.8475C64.6292 32.1515 62.3126 32.8171 60.1312 33.8263C57.0963 35.2303 54.3944 37.2663 52.2028 39.7975C52.0087 40.0218 51.8479 40.2483 51.7146 40.4636L59.8145 30.8906ZM16.2129 27.7232L10.7611 3L14.9533 3L19.7726 24.8666L22.7023 24.2209L19.7726 24.8666C20.0376 26.0691 20.7576 27.0773 21.7291 27.7232L16.2129 27.7232ZM35.0919 27.7232H26.8404C28.0858 26.8935 28.9043 25.4754 28.9043 23.8706L28.9043 3L32.9972 3V23.8265C32.9972 25.4514 33.8284 26.8867 35.0919 27.7232ZM45.7681 27.7232H40.2297C41.216 27.0714 41.9474 26.0506 42.216 24.832L47.0276 3L51.2199 3L45.7681 27.7232Z" fill="#4C73FF" stroke="#4C73FF" stroke-width="6"/>
</svg>
